<svg xmlns="http://www.w3.org/2000/svg" width="104.289" height="92.851" viewBox="0 0 104.289 92.851">
  <g id="Group_20" data-name="Group 20" transform="translate(-209.5 -1131)">
    <rect id="Rectangle_24" data-name="Rectangle 24" width="75" height="75" rx="12" transform="translate(238.789 1131)" fill="#f6ebec"/>
    <g id="Group_16" data-name="Group 16" transform="translate(-196.524 751.925)">
      <path id="Path_33" data-name="Path 33" d="M417.891,494.208v-2.757a13.962,13.962,0,0,1,13.962-13.962h7.366a14.078,14.078,0,0,1,11.957,6.75" transform="translate(-3.81 -33.838)" fill="none" stroke="#1d1d1b" stroke-linecap="round" stroke-miterlimit="10" stroke-width="3"/>
      <path id="Path_34" data-name="Path 34" d="M436.55,477.489l5.844,10.505,5.844-10.505" transform="translate(-10.668 -33.837)" fill="none" stroke="#1d1d1b" stroke-linecap="round" stroke-linejoin="round" stroke-width="3"/>
      <rect id="Rectangle_30" data-name="Rectangle 30" width="16.955" height="20.669" rx="8.478" transform="translate(423.248 422.982)" fill="none" stroke="#1d1d1b" stroke-miterlimit="10" stroke-width="3"/>
      <path id="Path_35" data-name="Path 35" d="M432.489,455.675s3.23.454,5.329-1.484c0,0,1.94,2.07,6.475,2.533" transform="translate(-9.176 -25.274)" fill="none" stroke="#1d1d1b" stroke-linecap="round" stroke-linejoin="round" stroke-width="3"/>
      <path id="Path_36" data-name="Path 36" d="M466.306,509.547v-2.756a13.962,13.962,0,0,1,13.962-13.962h7.366A13.962,13.962,0,0,1,501.6,506.791v2.756" transform="translate(-21.605 -39.476)" fill="none" stroke="#1d1d1b" stroke-linecap="round" stroke-miterlimit="10" stroke-width="3"/>
      <path id="Path_37" data-name="Path 37" d="M484.965,492.828l5.844,10.505,5.844-10.505" transform="translate(-28.463 -39.475)" fill="none" stroke="#1d1d1b" stroke-linecap="round" stroke-linejoin="round" stroke-width="3"/>
      <rect id="Rectangle_31" data-name="Rectangle 31" width="16.955" height="20.669" rx="8.478" transform="translate(453.868 432.684)" fill="none" stroke="#1d1d1b" stroke-miterlimit="10" stroke-width="3"/>
      <path id="Path_38" data-name="Path 38" d="M480.9,471.014s3.23.455,5.329-1.483c0,0,1.94,2.069,6.475,2.532" transform="translate(-26.971 -30.913)" fill="none" stroke="#1d1d1b" stroke-linecap="round" stroke-linejoin="round" stroke-width="3"/>
      <path id="Path_39" data-name="Path 39" d="M444.15,513.979H407.524V503.924h31.935" transform="translate(0 -43.553)" fill="none" stroke="#1d1d1b" stroke-linecap="round" stroke-linejoin="round" stroke-width="3"/>
      <path id="Path_40" data-name="Path 40" d="M439.429,410.939h-7.942v6.054l-7.98-6.054h-2.395a5.083,5.083,0,0,1-5.084-5.084V390.509a5.083,5.083,0,0,1,5.084-5.083h33.432a5.083,5.083,0,0,1,5.084,5.083v.07" transform="translate(-3.126)" fill="none" stroke="#1d1d1b" stroke-linecap="round" stroke-linejoin="round" stroke-width="3"/>
      <path id="Path_41" data-name="Path 41" d="M500.161,425.919H477.1v6.055l-7.98-6.055H466.73a5.083,5.083,0,0,1-5.084-5.084V405.489a5.083,5.083,0,0,1,5.084-5.083h33.431a5.083,5.083,0,0,1,5.084,5.083v15.346A5.084,5.084,0,0,1,500.161,425.919Z" transform="translate(-19.892 -5.506)" fill="none" stroke="#1d1d1b" stroke-linecap="round" stroke-linejoin="round" stroke-width="3"/>
      <path id="Path_42" data-name="Path 42" d="M475.814,421.766l8.9-5.743,5.743,2.641,8.874-6.678" transform="translate(-25.1 -9.173)" fill="none" stroke="#1d1d1b" stroke-linecap="round" stroke-linejoin="round" stroke-width="3"/>
    </g>
  </g>
</svg>
