<svg xmlns="http://www.w3.org/2000/svg" width="43.281" height="42.633" viewBox="0 0 43.281 42.633">
  <g id="Group_50" data-name="Group 50" transform="translate(-934.38 -2793)">
    <path id="Path_92" data-name="Path 92" d="M662.045,412.1v.953a3.581,3.581,0,0,1-3.572,3.572H635.722a3.581,3.581,0,0,1-3.572-3.572V382.972a3.581,3.581,0,0,1,3.572-3.572h3.539c10.747.149,8.315-.322,15.673,0h3.539a3.581,3.581,0,0,1,3.572,3.572V412.1Z" transform="translate(303.23 2418.013)" fill="none" stroke="#c61526" stroke-linecap="round" stroke-linejoin="round" stroke-width="2"/>
    <path id="Path_94" data-name="Path 94" d="M696.275,413.132c.054-2.389.057-2.407-1.909-2.669a18.99,18.99,0,0,1-8.59-3.241,1.288,1.288,0,0,0-1.685-.041,19.135,19.135,0,0,1-9.273,3.366c-1.093.113-1.341.577-1.319,1.506a32.405,32.405,0,0,0,1.742,10.082c1.608,4.561,4.227,8.413,8.763,10.9a1.669,1.669,0,0,0,1.83-.009,17.328,17.328,0,0,0,5.474-4.741C694.813,423.611,695.94,418.253,696.275,413.132Z" transform="translate(280.381 2398.192)" fill="#fff" stroke="#fff" stroke-linecap="round" stroke-linejoin="round" stroke-width="2"/>
    <rect id="Rectangle_35" data-name="Rectangle 35" width="15.67" height="6.845" rx="3" transform="translate(942.492 2794)" fill="#fff" stroke="#c61526" stroke-linecap="round" stroke-linejoin="round" stroke-width="2"/>
    <line id="Line_11" data-name="Line 11" x2="11.758" transform="translate(940.164 2809.3)" fill="none" stroke="#c61526" stroke-linecap="round" stroke-linejoin="round" stroke-width="2"/>
    <line id="Line_12" data-name="Line 12" x2="5.879" transform="translate(940.164 2813.973)" fill="none" stroke="#c61526" stroke-linecap="round" stroke-linejoin="round" stroke-width="2"/>
    <line id="Line_13" data-name="Line 13" x2="1.686" transform="translate(940.164 2829.109)" fill="none" stroke="#c61526" stroke-linecap="round" stroke-linejoin="round" stroke-width="2"/>
    <path id="Path_91" data-name="Path 91" d="M692.528,412.105c.045-2,.048-2.011-1.6-2.23a15.867,15.867,0,0,1-7.177-2.708,1.076,1.076,0,0,0-1.408-.034,15.987,15.987,0,0,1-7.747,2.812c-.913.095-1.12.482-1.1,1.258a27.073,27.073,0,0,0,1.456,8.423,15.789,15.789,0,0,0,7.321,9.111,1.394,1.394,0,0,0,1.529-.007,14.478,14.478,0,0,0,4.574-3.961C691.307,420.86,692.249,416.383,692.528,412.105Z" transform="translate(282.256 2400.365)" fill="#c61526" stroke="#c61526" stroke-linecap="round" stroke-linejoin="round" stroke-width="2"/>
    <path id="Path_93" data-name="Path 93" d="M691.91,419.407l-5.266,5.266-2.45-2.451" transform="translate(277.759 2395.714)" fill="none" stroke="#fff" stroke-linecap="round" stroke-linejoin="round" stroke-width="2"/>
  </g>
</svg>
