<svg xmlns="http://www.w3.org/2000/svg" width="234.363" height="171.24" viewBox="0 0 234.363 171.24">
  <g id="Group_23" data-name="Group 23" transform="translate(-113.706 -1648.591)">
    <path id="Path_43" data-name="Path 43" d="M138.738,342.766a8.67,8.67,0,0,1,1.664,7.041c7.716-1.1,12.481-2.769,19.34-5.646a16.573,16.573,0,0,0-1.9-8.7C151.365,340.11,146.425,341.464,138.738,342.766Z" transform="translate(35.199 1439.725)" fill="#ffaf00"/>
    <path id="Path_57" data-name="Path 57" d="M270.748,420.542c1.99.826,3.64.433,6.32-.3-1.829-5.783-2.042-12.469-1.566-20.234a9.2,9.2,0,0,1-5.966-.61C268.544,407.578,268.706,412.244,270.748,420.542Z" transform="translate(-155.239 1390.996)" fill="#ffe853"/>
    <path id="Path_65" data-name="Path 65" d="M325.521,336.407a9.121,9.121,0,0,1-3.515-6.749c-7.584,3.114-12.009,6.052-18.259,10.753a17.444,17.444,0,0,0,4.186,8.376C313.335,342.381,318.021,339.721,325.521,336.407Z" transform="translate(-89.347 1318.933)" fill="#00d339"/>
    <path id="Path_73" data-name="Path 73" d="M321.737,335.234a7.535,7.535,0,0,1-2.9-5.576,60.781,60.781,0,0,0-15.085,8.884,14.412,14.412,0,0,0,3.459,6.92C311.669,340.169,315.54,337.972,321.737,335.234Z" transform="matrix(-0.259, 0.966, -0.966, -0.259, 745.11, 1594.379)" fill="#00d339"/>
    <path id="Path_70" data-name="Path 70" d="M549.63,319.407a6.857,6.857,0,0,1,1.08,5.614,55.31,55.31,0,0,0,15.45-3.815,13.1,13.1,0,0,0-1.212-6.928C559.683,317.729,555.74,318.635,549.63,319.407Z" transform="translate(-472.268 1736.131) rotate(-30)" fill="#ff41aa"/>
    <path id="Path_71" data-name="Path 71" d="M214,398.109c1.2-7.554,2.263-11.365,6.281-16.463-2.754-1.285-4.263-2.5-4.93-4.352-4.71,5.212-6.609,9.768-8.587,17.674A15.059,15.059,0,0,0,214,398.109Z" transform="translate(42.801 1399.893)" fill="#82c4f2"/>
  </g>
</svg>
