<svg xmlns="http://www.w3.org/2000/svg" width="37.308" height="43.355" viewBox="0 0 37.308 43.355">
  <g id="Group_53" data-name="Group 53" transform="translate(-618.346 -2146)">
    <circle id="Ellipse_8" data-name="Ellipse 8" cx="9" cy="9" r="9" transform="translate(630 2146)" fill="#c61526"/>
    <g id="Group_31" data-name="Group 31" transform="translate(240.094 -336.35)">
      <path id="Path_79" data-name="Path 79" d="M279.226,433.864a21.694,21.694,0,0,1-34.5,0" transform="translate(134.932 2082.3)" fill="none" stroke="#c61526" stroke-linecap="round" stroke-linejoin="round" stroke-width="2"/>
      <line id="Line_7" data-name="Line 7" y1="13.106" x2="5.277" transform="translate(385.943 2508.626)" fill="none" stroke="#c61526" stroke-linecap="round" stroke-linejoin="round" stroke-width="2"/>
      <line id="Line_8" data-name="Line 8" x1="5.277" y1="13.106" transform="translate(402.19 2508.626)" fill="none" stroke="#c61526" stroke-linecap="round" stroke-linejoin="round" stroke-width="2"/>
      <path id="Path_80" data-name="Path 80" d="M271.978,398.7h-20.16l-5.441-17.823" transform="translate(134.081 2109.543)" fill="none" stroke="#c61526" stroke-linecap="round" stroke-linejoin="round" stroke-width="2"/>
    </g>
    <g id="Group_37" data-name="Group 37" transform="translate(-260 -651)">
      <g id="Group_29" data-name="Group 29" transform="translate(896.451 2801.832)">
        <path id="Path_89" data-name="Path 89" d="M546.065,394.7H544.6a1.848,1.848,0,0,1-1.843-1.843h0a1.848,1.848,0,0,1,1.843-1.843h3.3" transform="translate(-542.761 -391.011)" fill="none" stroke="#fff" stroke-linecap="round" stroke-linejoin="round" stroke-width="2"/>
        <path id="Path_90" data-name="Path 90" d="M544.6,399.474h1.462a1.848,1.848,0,0,1,1.843,1.843h0a1.848,1.848,0,0,1-1.843,1.843h-3.3" transform="translate(-542.761 -395.788)" fill="none" stroke="#fff" stroke-linecap="round" stroke-linejoin="round" stroke-width="2"/>
      </g>
      <line id="Line_9" data-name="Line 9" y1="1.691" transform="translate(899.613 2800.141)" fill="none" stroke="#fff" stroke-linecap="round" stroke-linejoin="round" stroke-width="2"/>
      <line id="Line_10" data-name="Line 10" y1="1.691" transform="translate(899.024 2809.398)" fill="none" stroke="#fff" stroke-linecap="round" stroke-linejoin="round" stroke-width="2"/>
    </g>
  </g>
</svg>
