<svg xmlns="http://www.w3.org/2000/svg" width="23.393" height="48.437" viewBox="0 0 23.393 48.437">
  <path id="Path_69" data-name="Path 69" d="M226.1,466.207a.916.916,0,0,1-.189-.02.879.879,0,0,1-.67-1.048c.647-2.931-1.14-5.861-2.864-8.695-1.843-3.024-3.707-6.868-2.16-10.4a6.925,6.925,0,0,1,.855-1.44c-3.072-5.3-2.243-12.541,1.122-17.3,3.957-5.6,11.041-9.069,19.436-9.525a.866.866,0,0,1,.926.829.88.88,0,0,1-.829.926c-7.74.421-14.5,3.7-18.1,8.784-2.849,4.031-3.645,10.3-1.264,14.94a14.715,14.715,0,0,1,2.788-1.807,10.948,10.948,0,0,1,5.212-1.484,5.563,5.563,0,0,1,4.957,2.827,4.6,4.6,0,0,1,.038,3.888,5.916,5.916,0,0,1-3.513,3.284,8.508,8.508,0,0,1-7.833-1.919,12.306,12.306,0,0,1-1.878-1.89,5.161,5.161,0,0,0-.307.591c-1.221,2.794.431,6.124,2.007,8.715,1.862,3.053,3.922,6.437,3.123,10.058A.878.878,0,0,1,226.1,466.207Zm-2.8-21.434a10.381,10.381,0,0,0,1.819,1.906c1.537,1.25,3.967,2.329,6.186,1.611A4.114,4.114,0,0,0,233.738,446a2.873,2.873,0,0,0,.011-2.421,3.886,3.886,0,0,0-3.409-1.854,9.253,9.253,0,0,0-4.378,1.289A12.528,12.528,0,0,0,223.3,444.772Z" transform="translate(-219.166 -417.769)" fill="#8ddff8"/>
</svg>
