<svg xmlns="http://www.w3.org/2000/svg" width="19.729" height="42.31" viewBox="0 0 19.729 42.31">
  <path id="Path_67" data-name="Path 67" d="M512.749,365.033a.82.82,0,0,1-.465-1.495c2.43-1.675,3.866-5.03,3.658-8.547A16.052,16.052,0,0,0,514.77,350a11.167,11.167,0,0,1-4.863.653,9.024,9.024,0,0,1-6.866-3.81,5.355,5.355,0,0,1-.852-4.768,4.158,4.158,0,0,1,2.3-2.349,5.813,5.813,0,0,1,4.427-.035c2.3.958,3.807,3.062,4.981,4.993.655,1.079,1.218,2.111,1.695,3.108a7.825,7.825,0,0,0,1.725-1.358c3.3-3.489,3.646-9.564.793-14.133-2.526-4.046-7.235-6.946-12.917-7.956a.819.819,0,0,1,.286-1.612c6.138,1.089,11.249,4.261,14.02,8.7,3.236,5.18,2.808,12.113-.993,16.125a9.578,9.578,0,0,1-2.248,1.748,17.687,17.687,0,0,1,1.317,5.584,11.222,11.222,0,0,1-4.364,9.993A.816.816,0,0,1,512.749,365.033Zm-6-24.124a4,4,0,0,0-1.6.323,2.535,2.535,0,0,0-1.418,1.411,3.82,3.82,0,0,0,.678,3.294,7.4,7.4,0,0,0,5.643,3.087,9.608,9.608,0,0,0,4.061-.535q-.675-1.413-1.61-2.949c-1.038-1.706-2.349-3.556-4.212-4.332A4.036,4.036,0,0,0,506.744,340.909Z" transform="translate(-501.939 -322.723)" fill="#ffaf00"/>
</svg>
