<svg xmlns="http://www.w3.org/2000/svg" width="10.772" height="37.313" viewBox="0 0 10.772 37.313">
  <path id="Path_68" data-name="Path 68" d="M557.974,478.98a5.436,5.436,0,0,1-.608-.035.685.685,0,1,1,.157-1.361c2.735.312,5.1-2.218,5.589-4.778.465-2.412-.218-5.158-2.031-8.164-.713-1.181-1.542-2.332-2.344-3.444a45.655,45.655,0,0,1-2.748-4.127c-1.307-2.311-2.661-5.79-1.689-9.244a8.709,8.709,0,0,1,9.9-6,.685.685,0,1,1-.282,1.341,7.4,7.4,0,0,0-8.3,5.025c-.844,3,.384,6.114,1.563,8.2a44.5,44.5,0,0,0,2.668,4c.818,1.136,1.664,2.309,2.405,3.538,1.994,3.3,2.734,6.377,2.2,9.132C563.883,476.044,561.2,478.98,557.974,478.98Z" transform="translate(-553.969 -441.667)" fill="#ffe853"/>
</svg>
